<svg width="854" height="900" viewBox="0 0 854 900" fill="none" xmlns="http://www.w3.org/2000/svg">
<g clip-path="url(#clip0_6_23)">
<rect width="853.481" height="899.55" fill="transparent"/>
<mask id="path-3-inside-1_6_23" fill="white">
<path fill-rule="evenodd" clip-rule="evenodd" d="M399.173 0.747978C375.676 2.67798 356.983 8.31498 343.938 17.405C335.045 23.603 323.969 36.881 322.193 43.474L321.22 47.091L302.446 47.097L283.673 47.103L272.673 50.904C246.805 59.84 228.186 74.278 208.762 100.462C199.952 112.338 196.72 118.316 192.224 131.05C187.172 145.359 185.861 152.713 185.895 166.55C185.945 186.732 191.041 201.528 201.146 210.834L206.341 215.618L206.007 221.925L205.673 228.232L208.673 227.472C220.571 224.457 233.67 217.284 243.968 208.143C259.446 194.406 267.529 181.204 283.115 144.205C290.682 126.242 298.324 116.547 309.304 110.984C316.132 107.523 324.673 106.981 324.673 110.007C324.673 111.482 323.269 112.468 318.978 114.007C311.41 116.722 306.073 120.783 300.531 128.043C295.156 135.085 292.437 140.313 284.664 158.55C269.863 193.277 256.514 211.143 235.222 224.719C226.539 230.255 212.324 234.318 207.738 232.575C206.06 231.937 205.187 232.007 204.923 232.801C204.657 233.599 202.692 233.278 198.503 231.751C191.055 229.035 187.899 228.887 188.359 231.275C188.808 233.61 192.867 235.517 197.423 235.535C201.896 235.553 205.173 238.357 205.173 242.166V244.783L211.759 244.078C228.28 242.308 246.09 232.968 258.499 219.565C266.071 211.386 270.79 204.276 277.425 191.05C280.46 185 283.88 178.925 285.025 177.55C287.056 175.11 287.107 175.102 287.14 177.21C287.201 181.166 281.167 197.82 276.392 206.877C273.054 213.206 269.227 218.421 263.287 224.731C253.835 234.772 249.803 237.806 238.269 243.562C227.209 249.081 219.906 250.802 209.67 250.3C200.151 249.834 197.313 248.449 180.96 236.286C171.521 229.265 169.358 228.913 171.384 234.726C172.641 238.331 177.066 242.817 182.517 246.012C187.476 248.918 200.173 253.829 200.173 252.841C200.173 252.461 200.681 252.658 201.303 253.28C202.017 253.994 202.366 258.037 202.25 264.268L202.067 274.127L211.732 273.349C229.508 271.918 245.4 264.392 258.73 251.093C270.938 238.912 276.627 227.529 297.179 174.163C302.606 160.069 309.868 147.835 315.908 142.608C318.529 140.34 323.949 136.849 327.953 134.85C336.985 130.342 348.266 129.168 355.611 131.973C363.611 135.028 362.933 136.041 352.824 136.137C343.569 136.225 336.635 137.835 329.001 141.668C323.676 144.341 313.845 153.792 309.284 160.622C304.677 167.521 296.684 187.368 292.197 203.05C288.272 216.771 281.233 233.6 276.095 241.55C270.735 249.842 258.269 262.163 248.875 268.454C240.753 273.893 231.045 278.079 223.238 279.508C217.117 280.628 201.707 278.513 199.435 276.24C198.051 274.856 198.01 274.547 199.209 274.532C200.014 274.522 198.423 273.269 195.673 271.747C192.923 270.226 188.873 267.749 186.673 266.243C182.907 263.665 182.655 263.619 182.362 265.46C181.625 270.1 185.021 273.639 194.26 277.86L203.173 281.931V289.847C203.173 298.689 205.919 315.55 207.359 315.55C207.872 315.55 208.01 316.005 207.666 316.562C206.968 317.69 211.752 326.421 215.604 331.05C218.753 334.833 218.843 333.473 216.18 322.363C214.101 313.691 213.483 300.094 215.122 299.081C215.645 298.758 216.343 300.194 216.675 302.272C218.707 314.998 223.379 326.022 230.354 334.55C236.242 341.749 237.173 343.636 237.173 348.374C237.173 356.918 240.297 369.033 245.113 379.164C248.881 387.092 251.447 390.886 256.987 396.717C262.045 402.042 264.649 405.747 266.146 409.749C270.142 420.427 278.971 431.678 285.796 434.788C287.103 435.384 288.173 436.211 288.173 436.627C288.173 439.126 279.933 437.71 273.038 434.026C264.224 429.318 264.488 431.513 274.205 443.744C277.762 448.222 282.698 454.44 285.173 457.561C289.966 463.605 295.895 469.007 303.567 474.32L308.29 477.591L307.981 512.867C307.709 543.999 307.474 548.446 305.979 550.725C305.048 552.145 299.873 556.281 294.479 559.915C285.632 565.877 283.96 566.622 277.378 567.539C268.923 568.717 268.171 569.071 241.673 584.362C230.673 590.71 205.023 604.298 184.673 614.557C164.323 624.817 146.773 633.722 145.673 634.345C144.573 634.969 133.548 640.722 121.173 647.13C95.26 660.549 79.44 669.089 63.176 678.44C44.955 688.915 33.752 701.314 22.799 723.125C16.541 735.588 10.627 754.026 8.71 767.05C7.82 773.1 6.915 779.062 6.699 780.299C6.483 781.535 5.802 787.835 5.186 794.299C4.571 800.762 3.88699 806.725 3.66599 807.55C3.44599 808.375 2.993 813.55 2.659 819.05C2.326 824.55 1.881 829.725 1.672 830.55C1.463 831.375 1.001 847.238 0.645996 865.8L0 899.55H4.464H8.92899L9.604 877.8C10.715 841.979 12.143 817.968 14.167 801.05C16.289 783.319 20.824 751.73 21.57 749.488C26.981 733.22 30.918 724.945 39.8 711.171C47.74 698.857 53.311 694.666 83.173 678.544C96.648 671.269 110.598 663.641 114.173 661.594C123.358 656.334 146.776 644.221 190.173 622.286C210.798 611.861 230.979 601.324 235.02 598.871C239.061 596.418 242.494 594.555 242.648 594.731C242.803 594.906 243.403 599.129 243.981 604.114C245.965 621.207 259.152 654.716 272.077 675.511C284.405 695.344 300.417 712.738 320.673 728.302C335.145 739.422 343.609 744.714 356.107 750.458C375.574 759.405 386.798 762.574 407.899 765.08C424.419 767.042 433.254 766.797 449.704 763.92C471.613 760.089 489.236 752.896 508.931 739.749C526.283 728.166 549.223 706.393 558.134 693.05C559.97 690.3 562.26 687.15 563.223 686.05C564.185 684.95 568.287 678.2 572.339 671.05C584.558 649.487 589.532 637.101 595.093 614.391C597.337 605.229 599.173 596.792 599.173 595.641C599.173 594.491 599.285 593.552 599.423 593.554C599.561 593.556 610.698 599.202 624.173 606.102C637.648 613.001 655.868 622.111 664.661 626.348C695.618 641.261 743.818 665.471 756.673 672.563C763.823 676.508 773.048 681.57 777.173 683.812C802.795 697.739 815.876 713.039 827.272 742.414C836.487 766.164 840.097 798.135 841.827 871.3L842.495 899.55H847.988H853.481L852.845 864.3C852.052 820.362 851.115 806.641 846.58 772.55C843.979 752.996 833.604 725.658 822.299 708.57C813.228 694.858 800.362 684.613 775.173 671.044C735.967 649.923 687.041 624.998 665.173 615.006C651.279 608.657 596.078 580.189 589.484 575.972C581.22 570.686 576.201 568.357 568.101 566.05C560.07 563.762 551.832 558.909 546.341 553.231C541.84 548.577 541.247 543.29 541.206 507.474C541.169 474.989 540.413 477.882 550.428 472.171C553.043 470.68 557.22 466.893 559.71 463.755C562.2 460.617 566.253 455.575 568.716 452.55C574.495 445.455 583.336 432.379 582.751 431.794C582.502 431.545 579.761 432.583 576.661 434.1C567.493 438.585 555.432 438.57 564.107 434.084C565.72 433.25 569.733 430.074 573.024 427.028C577.816 422.591 580.001 419.454 584.002 411.269C587.442 404.23 590.448 399.649 593.663 396.55C603.019 387.528 609.966 372.217 612.717 354.55C614.833 340.962 614.74 341.221 619.57 335.562C621.991 332.726 625.332 327.851 626.996 324.728C630.862 317.473 635.169 304.669 635.188 300.374C635.217 294.207 636.803 294.082 638.022 300.152C639.505 307.535 639.431 313.52 637.762 321.3C637.024 324.738 636.731 327.55 637.11 327.55C638.426 327.55 642.964 322.027 644.915 318.05C648.422 310.903 649.23 304.963 649.248 286.219L649.265 268.002L653.606 265.256C659.56 261.489 668.515 252.72 670.696 248.521C672.871 244.332 679.173 220.478 679.173 216.433C679.173 211.628 675.702 212.661 672.083 218.542C668.076 225.055 659.208 232.901 651.629 236.64C644.59 240.113 629.292 243.518 620.647 243.537C604.243 243.573 585.263 238.839 570.4 231.006C553.057 221.865 534.029 204.813 519.323 185.231C511.9 175.347 506.061 165.949 507.785 166.663C508.3 166.876 515.528 174.255 523.846 183.062C546.222 206.751 558.719 216.956 575.71 225.416C591.058 233.058 611.843 237.509 625.173 236.01C633.393 235.086 644.987 231.776 650.482 228.785C663.509 221.695 680.173 195.696 680.173 182.461C680.173 178.804 677.592 174.55 675.373 174.55C674.933 174.55 674.03 177.137 673.367 180.3C670.436 194.269 660.795 206.451 648.713 211.452C636.842 216.366 616.683 217.898 602.381 214.974C585.68 211.56 573.741 206.365 557.173 195.303C543.71 186.314 533.227 177.513 515.102 159.987C488.674 134.43 471.313 125.114 450.173 125.144C439.158 125.16 436.659 125.867 426.839 131.745C423.072 133.999 422.979 134.005 421.591 132.107C419.633 129.429 421.397 126.936 428.15 122.843C442.532 114.125 466.968 116.477 487.259 128.532C494.563 132.871 509.846 145.48 523.173 158.16C552.245 185.823 574.472 199.81 600.335 206.717C611.473 209.692 629.418 209.896 639.91 207.168C643.891 206.133 647.671 204.655 648.311 203.884C649.899 201.97 648.017 198.571 644.136 196.344C642.507 195.408 641.173 194.204 641.173 193.667C641.173 193.131 643.747 190.735 646.893 188.344C656.358 181.15 661.173 172.065 661.173 161.404C661.173 157.563 660.758 156.398 659.066 155.493C656.392 154.061 656.035 154.541 653.353 163.173C650.763 171.506 646.839 177.33 640.919 181.622L636.673 184.7L634.489 179.956L632.304 175.212L631.989 179.631C631.704 183.616 631.403 184.081 628.923 184.366C627.349 184.548 626.173 185.296 626.173 186.116C626.173 187.082 625.055 187.55 622.744 187.55C620.859 187.55 618.641 188.225 617.816 189.05C613.297 193.569 587.935 188.067 568.673 178.389C556.981 172.515 548.616 166.747 539.926 158.568C536.487 155.331 530.523 150.091 526.673 146.924C522.823 143.757 519.448 140.889 519.173 140.549C518.749 140.025 502.794 126.882 498.16 123.239C485.302 113.131 464.633 105.302 444.673 102.978C438.84 102.299 434.555 100.501 435.801 99.256C436.139 98.918 435.039 96.203 433.357 93.222L430.299 87.803L433.486 86.696L436.673 85.588L433.673 86.194C432.023 86.527 429.181 86.982 427.356 87.206C419.541 88.163 410.844 92.749 404.07 99.484C396.176 107.335 393.359 112.472 392.513 120.569C392.166 123.893 391.544 126.821 391.131 127.076C390.719 127.331 389.357 126.71 388.106 125.696C385.895 123.906 385.864 123.645 387.032 116.576C389.289 102.909 395.921 93.31 407.998 86.232C418.461 80.1 425.672 78.35 442.751 77.801C459.123 77.274 466.865 78.512 481.388 83.979C492.693 88.234 514.562 101.66 536.972 118.104C548.794 126.778 552.203 128.726 561.828 132.303C567.964 134.583 578.764 137.881 585.828 139.632C597.503 142.525 599.63 142.763 609.173 142.243C614.948 141.928 621.138 141.148 622.929 140.51C628.455 138.541 628.557 131.489 623.071 130.709C620.58 130.354 617.173 127.864 617.173 126.397C617.173 124.734 606.955 107.195 602.362 100.975C599.69 97.356 597.113 94.819 596.371 95.076C595.655 95.324 595.356 95.063 595.707 94.495C596.058 93.927 595.801 92.807 595.137 92.006C594.472 91.205 594.311 90.55 594.778 90.55C595.246 90.55 599.159 94.038 603.474 98.3C611.018 105.753 611.251 105.897 609.542 102.05C605.397 92.719 588.722 73.809 580.316 68.907C574.161 65.318 556.994 52.944 546.606 44.609C524.069 26.527 495.1 12.394 465.673 5.12398C447.177 0.554985 421.832 -1.11302 399.173 0.747978ZM456.173 12.092C476.469 15.539 503.987 26.589 522 38.527C526.77 41.688 534.498 46.788 539.173 49.859C543.848 52.931 550.148 57.887 553.173 60.874C557.832 65.474 573.962 78.799 576.022 79.75C577.414 80.392 591.221 96.863 594.786 102.135C598.259 107.27 601.817 111.746 606.423 116.774C608.486 119.026 610.173 121.864 610.173 123.081C610.173 124.867 609.449 125.408 606.423 125.884C604.361 126.208 600.873 126.003 598.673 125.429C596.473 124.855 593.436 124.146 591.923 123.854C590.41 123.562 589.173 122.679 589.173 121.891C589.173 121.103 588.013 119.299 586.595 117.882C584.714 116 584.179 114.662 584.615 112.927C585.172 110.706 584.934 110.55 581.001 110.55C577.133 110.55 576.948 110.665 578.719 111.96C580.62 113.35 580.619 113.4 578.665 115.559C577.11 117.277 575.906 117.643 573.069 117.263C567.757 116.55 554.555 109.987 538.673 100.163C521.534 89.562 495.788 76.719 483.642 72.713C441.634 58.858 397.492 66.517 382.369 90.284C378.125 96.955 376.236 103.528 375.397 114.55C374.999 119.775 374.229 124.05 373.686 124.05C369.573 124.05 368.585 106.622 372.07 95.516C374.323 88.336 380.687 78.561 386.239 73.753C396.563 64.814 416.142 58.013 435.673 56.58C441.173 56.177 443.76 55.78 441.423 55.698C437.889 55.575 437.173 55.213 437.173 53.55C437.173 52.45 436.671 51.55 436.056 51.55C435.409 51.55 435.138 50.514 435.411 49.084L435.883 46.617L428.778 47.074C409.801 48.293 388.502 55.861 378.454 64.955C363.608 78.393 356.41 95.215 358.302 112.05C358.673 115.35 358.783 118.25 358.547 118.494C358.311 118.739 357.225 118.046 356.134 116.955C354.487 115.309 354.041 113.07 353.51 103.774C352.425 84.825 356.273 75.656 371.941 59.843C380.513 51.192 386.031 47.93 399.173 43.745C416.066 38.366 417.112 38.23 436.456 38.893C446.475 39.236 456.473 39.771 458.673 40.081C467.104 41.268 479.027 44.889 492.095 50.231C510.146 57.61 517.982 60.55 519.602 60.55C521.351 60.55 522.212 55.935 520.784 54.213C515.679 48.059 480.18 34.854 459.802 31.529C436.421 27.715 423.752 28.984 393.308 38.19C379.8 42.275 374.885 44.6 370.127 49.16C366.837 52.312 359.837 56.55 357.921 56.55C356.031 56.55 350.919 61.274 348.223 65.511C344.991 70.592 342.759 77.685 341.158 87.972C339.616 97.874 338.801 98.766 336.823 92.719C334.656 86.094 334.749 79.875 337.166 69.794C340.157 57.319 344.352 49.902 353.862 40.275C360.578 33.476 367.211 28.865 379.673 22.332C384.623 19.736 388.125 17.599 387.454 17.582C386.784 17.564 386.467 16.949 386.749 16.214C387.116 15.256 386.187 14.839 383.467 14.741C380.683 14.641 380.072 14.863 381.173 15.576C382.249 16.273 381.826 16.386 379.673 15.977C373.232 14.753 351.787 28.501 341.97 40.148C339.607 42.951 335.76 47.624 333.423 50.532L329.173 55.819V52.145C329.173 44.456 337.886 32.751 349.629 24.665C363.428 15.162 370.649 12.747 387.673 11.938C393.723 11.651 402.498 11.032 407.173 10.562C419.069 9.36597 444.863 10.172 456.173 12.092ZM317.736 57.175L328.173 58.801L328.158 61.925C328.145 64.807 326.553 72.596 324.097 81.8L323.096 85.55L311.384 85.556C304.943 85.559 297.873 86.048 295.673 86.644C280.747 90.684 257.357 114.598 248.034 135.35C246.379 139.035 242.772 148.929 240.02 157.336C237.267 165.743 233.701 175.521 232.094 179.064C228.866 186.184 228.385 190.31 230.681 191.191C235.122 192.896 241.814 181.975 250.723 158.486C262.707 126.887 277.253 106.083 292.682 98.476C299.352 95.187 307.872 93.721 310.791 95.359C312.425 96.276 311.751 96.843 305.673 99.658C296.709 103.811 288.379 109.412 284.359 113.991C274.962 124.694 266.021 140.572 258.503 159.911C254.644 169.837 247.384 184.496 242.586 192.05C236.28 201.978 222.186 213.142 216.947 212.359C215.806 212.189 213.929 210.779 212.773 209.226C210.882 206.684 210.684 205.138 210.781 193.726C210.929 176.265 212.689 163.291 215.823 156.55C217.229 153.525 219.856 146.775 221.661 141.55C227.695 124.081 228.523 122.081 232.267 115.93C244.136 96.432 256.996 84.581 274.992 76.559C286.958 71.225 292.979 69.577 300.558 69.562C305.543 69.552 306.798 69.167 308.761 67.05C310.395 65.286 312.196 64.52 314.875 64.448L318.673 64.345L315.173 63.394C308.467 61.572 291.247 62.086 284.673 64.304C265.974 70.615 251.587 78.871 243.053 88.189C231.446 100.862 217.54 126.193 212.66 143.55C211.964 146.025 210.204 150.599 208.749 153.715C205.054 161.629 203.297 170.859 202.518 186.458C201.866 199.496 201.799 199.806 200.075 197.678C199.1 196.474 197.317 191.223 196.112 186.009C194.219 177.816 193.992 174.596 194.438 162.29C195.281 139.053 200.427 126.149 218.041 103.107C233.769 82.531 249.865 69.032 266.573 62.405C283.417 55.723 298.509 54.181 317.736 57.175ZM384.916 141.996C397.153 144.57 417.006 144.755 430.673 142.423C448.132 139.443 458.461 140.055 467.546 144.607C476.35 149.017 484.53 156.837 487.564 163.742C488.847 166.661 492.247 175.8 495.119 184.05C503.873 209.192 518.463 233.173 533.648 247.377C537.268 250.764 544.38 256.648 549.451 260.453C554.523 264.258 559.871 268.649 561.335 270.211C563.76 272.798 570.173 284.277 570.173 286.032C570.173 288.109 564.099 284.743 558.367 279.49C554.801 276.223 551.499 273.55 551.028 273.55C549.112 273.55 550.344 271.545 552.609 270.977C554.749 270.44 554.917 270.081 553.986 268.038C552.611 265.022 545.993 260.306 537.461 256.265L530.673 253.05L513.173 253.167C495.196 253.287 476.789 255.632 465.832 259.196C460.438 260.951 454.822 265.395 452.622 269.649C450.56 273.636 450.81 275.033 453.778 276.107L456.384 277.05L452.309 281.19C448.925 284.629 448.037 285.091 447.066 283.921C443.686 279.849 429.851 276.107 421.16 276.915C412.652 277.705 408.592 279.08 403.857 282.774C401.758 284.411 399.953 285.593 399.846 285.4C399.74 285.208 398.194 283.164 396.413 280.859C394.631 278.553 393.173 276.416 393.173 276.109C393.173 275.801 394.523 275.55 396.173 275.55C399.62 275.55 399.62 275.552 397.826 271.268C395.629 266.021 389.093 260.915 381.619 258.606C369.273 254.793 334.989 251.849 322.899 253.565C315.049 254.679 305.262 259.451 299.2 265.122C294.316 269.69 292.888 272.955 295.407 273.795C296.221 274.066 295.683 275.344 293.824 277.553C289.704 282.45 284.014 286.703 282.408 286.087C281.639 285.791 279.981 285.55 278.723 285.55H276.437L279.704 275.599C281.501 270.126 285.257 260.729 288.051 254.716C295.697 238.263 297.795 231.651 302.229 210.02C308.316 180.333 312.049 171.058 322.121 160.603C332.687 149.637 344.027 144.657 363.252 142.541C368.977 141.911 373.851 141.206 374.083 140.973C374.829 140.227 377.874 140.515 384.916 141.996ZM522.43 212.05C537.804 234.934 548.003 245.024 565.687 254.843C583.119 264.523 602.022 268.55 620.414 266.505C637.053 264.654 649.116 259.071 661.493 247.491C666.31 242.984 670.514 239.558 670.834 239.878C672.032 241.076 660.181 257.162 655.236 261.05C643.541 270.246 624.887 275.245 606.173 274.198C573.118 272.35 549.633 257.12 524.22 221.054C515.348 208.462 513.748 205.537 508.775 192.812C503.625 179.631 504.363 179.354 510.803 192.05C513.873 198.1 519.105 207.1 522.43 212.05ZM366.259 277.43C377.921 279.533 384.057 282.035 389.057 286.727C398.902 295.964 399.377 314.566 390.24 333.104C385.396 342.932 380.073 349.144 371.885 354.525C362.206 360.887 354.199 362.921 341.314 362.292C329.534 361.716 322.756 359.696 314.698 354.359C308.916 350.529 299.039 338.892 295.739 332.021C290.401 320.907 288.8 302.271 292.309 292.095C294.311 286.291 302.942 280.043 312.373 277.573C322.759 274.852 351.539 274.775 366.259 277.43ZM531.872 276.571C543.957 278.533 552.199 283.82 556.097 292.111C559.24 298.798 559.286 314.411 556.191 324.05C549.808 343.93 540.261 354.513 523.697 360.074C510.979 364.343 495.172 363.123 482.914 356.924C475.874 353.365 463.456 340.672 459.355 332.845C455.07 324.667 451.86 310.044 452.719 302.615C454.448 287.664 462.63 280.638 482.515 277.029C491.154 275.462 523.203 275.164 531.872 276.571ZM338.173 287.432C335.148 288.409 331.23 289.961 329.466 290.882C323.466 294.016 313.155 301.712 313.724 302.633C314.927 304.579 321.019 303.367 329.173 299.56L337.673 295.592L338.743 300.821C339.331 303.697 340.357 307.058 341.022 308.29C344.807 315.295 359.928 315.151 364.571 308.065C365.404 306.793 366.668 303.515 367.38 300.78L368.673 295.806L377.117 301.178C389.667 309.163 391.599 308.364 382.778 298.837C379.811 295.632 375.419 292.028 373.018 290.83C362.414 285.533 348.317 284.159 338.173 287.432ZM436.015 288.479C438.027 289.511 440.717 291.475 441.994 292.843C444.147 295.15 444.242 295.727 443.301 300.813C441.726 309.338 444.465 324.244 449.411 334.05C461.312 357.649 481.191 371.071 505.173 371.701C515.071 371.96 520.715 371.082 528.876 368.01C538.173 364.51 543.97 360.568 551.398 352.694C561.965 341.493 567.139 327.923 567.922 309.361C568.315 300.042 568.729 297.55 569.964 297.077C572.213 296.214 572.826 297.818 573.523 306.388C574.859 322.84 572.657 338.423 562.69 383.05C560.725 391.85 558.173 403.317 557.019 408.532C554.452 420.139 549.103 439.025 546.165 446.856C539.559 464.467 507.958 503.075 483.314 523.646C472.708 532.498 457.29 540.749 448.173 542.45C432.384 545.397 409.779 544.464 397.815 540.372C390.673 537.929 382.435 533.853 376.472 529.813C363.823 521.242 333.535 490.837 321.92 475.05C313.29 463.321 306.436 451.59 302.482 441.785C300.563 437.025 296.32 421.863 293.054 408.09C289.788 394.318 285.798 377.65 284.189 371.05C277.471 343.507 275.017 324.062 275.949 305.747C276.397 296.955 276.54 296.46 278.548 296.747C280.491 297.024 280.739 297.904 281.446 307.05C283.05 327.793 289.733 343.334 302.342 355.647C309.589 362.724 319.487 368.323 328.576 370.488C334.906 371.996 352.987 371.681 359.561 369.949C369.592 367.307 379.239 361.684 386.673 354.147C392.661 348.076 394.373 345.483 398.51 336.214C403.863 324.221 406.417 311.696 405.938 299.779L405.673 293.191L410.541 290.153C418.296 285.315 428.533 284.642 436.015 288.479ZM484.955 286.955C479.253 288.489 471.414 293.618 464.726 300.189C460.158 304.678 459.954 305.075 462.068 305.382C463.44 305.58 467.516 303.878 472.242 301.132C476.579 298.612 480.56 296.55 481.089 296.55C481.618 296.55 482.368 298.687 482.756 301.3C483.294 304.92 484.352 306.942 487.2 309.8C490.594 313.205 491.432 313.55 496.305 313.546C505.582 313.54 511.379 307.981 511.581 298.899C511.686 294.173 511.246 294.114 521.209 300.193C526.134 303.197 527.266 303.499 531.459 302.924C534.052 302.569 536.16 302.002 536.144 301.664C536.111 300.966 526.472 293.972 521.105 290.752C513.258 286.045 495.333 284.162 484.955 286.955ZM266.45 332.05C266.924 345.537 267.124 346.599 271.904 361.05C276.157 373.907 278.761 384.247 280.944 396.942C281.418 399.694 281.302 399.8 278.557 399.133C268.662 396.729 259.154 388.588 253.864 377.99C249.14 368.527 247.319 361.859 245.784 348.399L244.497 337.107L250.051 332.078C257.427 325.4 264.135 318.277 264.156 317.1C264.167 316.5 264.502 316.5 265.066 317.1C265.556 317.622 266.18 324.35 266.45 332.05ZM600.16 333.569L605.364 337.05L604.76 345.05C603.899 356.466 601.721 364.661 596.77 375.113C590.204 388.975 582.506 396.084 571.908 398.072L568.253 398.758L569.24 395.404C569.782 393.559 571.157 387.801 572.296 382.607C573.434 377.414 575.667 369.636 577.257 365.323C581.337 354.257 583.916 343.357 584.656 334.05C585.006 329.65 585.545 324.728 585.853 323.112L586.414 320.175L590.685 325.132C593.034 327.858 597.297 331.655 600.16 333.569ZM400.423 392.164C394.699 396.311 400.408 399.971 411.663 399.37C418.865 398.985 420.024 397.004 415.098 393.497C411.008 390.584 403.54 389.906 400.423 392.164ZM439.173 392.751C434.014 395.387 432.948 398.806 437.101 399.393C441.482 400.011 450.076 398.449 452.33 396.624L454.539 394.836L452.053 393.207C447.735 390.378 444.071 390.248 439.173 392.751ZM398.997 444.027C398.625 444.416 391.425 445.031 382.997 445.393L367.673 446.05L367.363 448.733C367.156 450.528 367.652 451.729 368.863 452.363C369.948 452.93 392.986 453.258 426.387 453.18C477.482 453.061 482.243 452.908 483.809 451.343C485.096 450.055 485.281 449.107 484.56 447.491C483.66 445.475 482.707 445.314 468.638 444.796C460.407 444.493 449.173 444.368 443.673 444.516C426.207 444.989 418.921 444.901 409.173 444.099C403.948 443.67 399.369 443.637 398.997 444.027ZM426.694 473.517L407.715 474.05L410.507 476.243C414.995 479.77 419.768 480.864 428.16 480.288C435.311 479.798 441.074 477.773 447.173 473.605C448.506 472.694 448.506 472.603 447.173 472.782C446.348 472.893 437.132 473.223 426.694 473.517ZM323.875 492.468C329.551 501.091 353.183 524.023 366.673 533.996C373.273 538.876 382.057 546.077 386.193 550C411.236 573.75 431.56 583.965 453.673 583.919C466.345 583.892 472.561 582.082 482.769 575.444C498.964 564.912 514.675 545.545 526.488 521.55L531.658 511.05L532.277 536.05C532.618 549.8 533.229 563.876 533.636 567.33C534.32 573.13 536.016 576.55 538.209 576.55C539.836 576.55 541.173 572.746 541.173 568.116C541.173 565.605 541.555 563.55 542.023 563.55C543.183 563.55 550.336 568.808 552.115 570.968C552.909 571.931 555.454 574.024 557.772 575.618L561.986 578.518L561.501 584.784C557.844 631.979 531.695 677.648 493.673 703.244C479.351 712.885 459.565 721.045 444.673 723.452C424.419 726.726 397.378 724.183 380.173 717.387C349.347 705.209 322.779 682.698 304.592 653.348C292.929 634.525 284.429 611.758 281.263 590.858C279.607 579.934 279.761 578.684 282.923 577.33C287.194 575.501 304.03 565.591 304.696 564.513C305.023 563.983 306.142 563.55 307.182 563.55C308.783 563.55 309.119 564.433 309.373 569.3C309.628 574.196 309.958 575.05 311.59 575.05C312.77 575.05 313.79 574.09 314.246 572.55C315.67 567.735 317.454 522.865 316.998 503.31C316.477 480.923 316.379 481.078 323.875 492.468ZM272.103 588.597C272.26 603.273 278.029 622.551 288.697 644.05C305.77 678.456 329.879 703.351 361.233 718.95C377.434 727.01 387.593 730.542 403.173 733.53C454.488 743.372 509.822 716.436 544.875 664.55C549.606 657.546 559.46 637.856 562.436 629.459C568.109 613.449 571.408 598.576 571.539 588.418C571.679 577.515 571.044 577.93 580.389 582.629C588.019 586.465 588.34 587.016 587.612 594.993C585.916 613.579 576.413 641.407 564.182 663.603C554.961 680.336 544.602 694.151 531.192 707.598C508.041 730.811 488.658 742.549 460.327 750.51C446.1 754.507 438.882 755.537 425.173 755.524C387.429 755.489 358.787 744.5 324.069 716.734C307.933 703.829 287.48 680.627 278.303 664.817C270.169 650.803 261.196 629.249 257.622 615.141C256.217 609.591 254.641 604.269 254.12 603.314C252.709 600.727 252.938 588.988 254.423 587.767C255.111 587.202 259.047 584.911 263.172 582.678C271.897 577.952 271.989 578.013 272.103 588.597ZM616.323 642.3C615.817 643.262 615.052 646.525 614.622 649.55C614.192 652.575 613.732 655.725 613.6 656.55C613.468 657.375 612.178 665.7 610.734 675.05C608.581 688.987 594.983 758.482 589.797 782.05C587.517 792.41 586.983 799.921 588.399 801.725C590.036 803.81 593.287 804.747 595.05 803.64C597.351 802.195 608.783 749.755 616.217 706.55C617.873 696.925 620.09 684.55 621.144 679.05C624.574 661.15 626.383 644.811 625.184 642.57C623.771 639.931 617.667 639.745 616.323 642.3ZM231.923 701.63C229.251 703.186 229.734 706.644 235.201 725.087C239.516 739.645 243.702 754.552 252.18 785.55C253.157 789.125 257.833 805.775 262.569 822.55C267.305 839.325 272.338 858.205 273.752 864.507C276.816 878.156 277.467 879.55 280.774 879.55C285.494 879.55 287.173 877.873 287.173 873.159C287.173 867.008 276.742 827.827 260.254 772.05C258.14 764.9 252.935 747.278 248.686 732.89C244.437 718.501 240.115 705.339 239.081 703.64C237.147 700.459 234.978 699.851 231.923 701.63ZM770.434 733.716C761.034 742.145 740.564 764.311 732.262 775.05C712.952 800.028 700.898 820.824 691.205 845.885C687.887 854.463 685.173 861.919 685.173 862.455C685.173 862.991 682.473 871.433 679.173 881.215C675.873 890.997 673.173 899.125 673.173 899.276C673.173 899.426 680.579 899.55 689.63 899.55H706.087L716.268 891.8C736.6 876.322 747.81 868.279 754.52 864.354C764.246 858.664 767.601 855.475 766.734 852.743C765.777 849.727 762.079 849.033 758.031 851.111C748.691 855.904 724.811 871.957 708.173 884.627C706.798 885.674 703.648 887.733 701.173 889.204C698.698 890.674 695.433 893.016 693.916 894.407C691.795 896.354 690.887 896.664 689.978 895.755C688.514 894.291 692.087 883.144 695.967 877.066C699.294 871.856 714.902 852.233 726.046 839.252C740.16 822.811 763.391 802.515 776.465 795.204C784.014 790.982 786.442 788.481 786.003 785.382C785.728 783.438 785.007 783.006 781.673 782.784C776.521 782.44 771.428 785.365 753.416 799.008C734.958 812.989 717.214 830.543 708.763 843.18C701.908 853.431 701.094 853.864 703.765 845.835C710.544 825.459 729.216 794.295 748.572 771.05C751.32 767.75 760.23 758.241 768.371 749.919C782.786 735.184 784.647 732.424 781.973 729.75C779.6 727.377 776.199 728.545 770.434 733.716ZM69.173 731.55C68.073 732.65 67.179 734.113 67.186 734.8C67.194 735.488 71.462 740.456 76.672 745.841C87.851 757.395 105.935 778.978 113.297 789.552C116.168 793.676 120.86 800.425 123.724 804.55C128.744 811.781 140.173 833.364 140.173 835.613C140.173 836.216 141.341 839.63 142.77 843.199C144.198 846.769 145.173 849.884 144.936 850.12C144.699 850.357 142.795 848.066 140.703 845.03C134.991 836.736 100.907 802.668 90.898 795.248C86.072 791.67 79.221 787.238 75.674 785.399C69.398 782.145 69.151 782.1 66.449 783.74C61.765 786.582 62.897 788.49 73.566 795.724C92.843 808.796 103.487 818.662 128.4 846.55C149.157 869.785 164.274 894.55 157.701 894.55C156.379 894.55 152.862 892.229 131.673 877.375C128.373 875.062 123.063 871.005 119.873 868.361C112.132 861.944 98.58 853.135 93.879 851.465C89.342 849.852 86.673 851.03 86.673 854.645C86.673 856.507 88.452 858.215 94.89 862.536C99.409 865.569 106.384 870.79 110.39 874.139C114.396 877.487 121.723 883.29 126.673 887.033C131.623 890.776 137.151 895.123 138.958 896.694L142.243 899.55H157.708C166.832 899.55 173.173 899.16 173.173 898.598C173.173 897.758 170.203 888.849 163.322 869.05C162.176 865.75 159.845 858.122 158.143 852.098C154.423 838.927 144.613 817.387 136.191 803.897C129.109 792.552 115.169 773.623 107.173 764.495C84.196 738.264 75.356 729.55 71.723 729.55C71.42 729.55 70.273 730.45 69.173 731.55ZM142.613 761.778C137.449 764.495 136.964 768.104 141.127 772.845C152.292 785.561 173.557 841.045 182.311 880.3L186.604 899.55H192.014C197.389 899.55 197.419 899.533 196.843 896.8C188.389 856.707 175.262 815.146 162.18 787.05C157.652 777.327 148.014 762.087 145.873 761.265C145.147 760.986 143.679 761.217 142.613 761.778ZM679.825 765.744C678.97 768.112 676.423 776.8 674.166 785.05C671.908 793.3 669.217 802.975 668.184 806.55C666.06 813.902 657.903 846.448 656.28 854.05C654.656 861.658 649.173 895.177 649.173 897.502C649.173 899.308 649.799 899.55 654.471 899.55H659.77L662.073 884.3C665.642 860.673 668.847 846.904 685.794 782.415C690.239 765.499 690.039 762.285 684.509 761.744C681.637 761.464 681.254 761.791 679.825 765.744ZM509.965 794.032C509.026 795.287 504.234 806.605 499.317 819.182C489.964 843.107 474.613 880.243 469.288 891.825C467.575 895.551 466.173 898.814 466.173 899.075C466.173 899.336 469.542 899.55 473.66 899.55H481.146L482.75 895.8C495.378 866.264 515.666 810.276 517.682 799.397C518.351 795.789 517.201 794.411 513.712 794.636C513.184 794.67 512.509 794.034 512.212 793.223C511.786 792.058 511.314 792.228 509.965 794.032Z"/>
</mask>
<path fill-rule="evenodd" clip-rule="evenodd" d="M399.173 0.747978C375.676 2.67798 356.983 8.31498 343.938 17.405C335.045 23.603 323.969 36.881 322.193 43.474L321.22 47.091L302.446 47.097L283.673 47.103L272.673 50.904C246.805 59.84 228.186 74.278 208.762 100.462C199.952 112.338 196.72 118.316 192.224 131.05C187.172 145.359 185.861 152.713 185.895 166.55C185.945 186.732 191.041 201.528 201.146 210.834L206.341 215.618L206.007 221.925L205.673 228.232L208.673 227.472C220.571 224.457 233.67 217.284 243.968 208.143C259.446 194.406 267.529 181.204 283.115 144.205C290.682 126.242 298.324 116.547 309.304 110.984C316.132 107.523 324.673 106.981 324.673 110.007C324.673 111.482 323.269 112.468 318.978 114.007C311.41 116.722 306.073 120.783 300.531 128.043C295.156 135.085 292.437 140.313 284.664 158.55C269.863 193.277 256.514 211.143 235.222 224.719C226.539 230.255 212.324 234.318 207.738 232.575C206.06 231.937 205.187 232.007 204.923 232.801C204.657 233.599 202.692 233.278 198.503 231.751C191.055 229.035 187.899 228.887 188.359 231.275C188.808 233.61 192.867 235.517 197.423 235.535C201.896 235.553 205.173 238.357 205.173 242.166V244.783L211.759 244.078C228.28 242.308 246.09 232.968 258.499 219.565C266.071 211.386 270.79 204.276 277.425 191.05C280.46 185 283.88 178.925 285.025 177.55C287.056 175.11 287.107 175.102 287.14 177.21C287.201 181.166 281.167 197.82 276.392 206.877C273.054 213.206 269.227 218.421 263.287 224.731C253.835 234.772 249.803 237.806 238.269 243.562C227.209 249.081 219.906 250.802 209.67 250.3C200.151 249.834 197.313 248.449 180.96 236.286C171.521 229.265 169.358 228.913 171.384 234.726C172.641 238.331 177.066 242.817 182.517 246.012C187.476 248.918 200.173 253.829 200.173 252.841C200.173 252.461 200.681 252.658 201.303 253.28C202.017 253.994 202.366 258.037 202.25 264.268L202.067 274.127L211.732 273.349C229.508 271.918 245.4 264.392 258.73 251.093C270.938 238.912 276.627 227.529 297.179 174.163C302.606 160.069 309.868 147.835 315.908 142.608C318.529 140.34 323.949 136.849 327.953 134.85C336.985 130.342 348.266 129.168 355.611 131.973C363.611 135.028 362.933 136.041 352.824 136.137C343.569 136.225 336.635 137.835 329.001 141.668C323.676 144.341 313.845 153.792 309.284 160.622C304.677 167.521 296.684 187.368 292.197 203.05C288.272 216.771 281.233 233.6 276.095 241.55C270.735 249.842 258.269 262.163 248.875 268.454C240.753 273.893 231.045 278.079 223.238 279.508C217.117 280.628 201.707 278.513 199.435 276.24C198.051 274.856 198.01 274.547 199.209 274.532C200.014 274.522 198.423 273.269 195.673 271.747C192.923 270.226 188.873 267.749 186.673 266.243C182.907 263.665 182.655 263.619 182.362 265.46C181.625 270.1 185.021 273.639 194.26 277.86L203.173 281.931V289.847C203.173 298.689 205.919 315.55 207.359 315.55C207.872 315.55 208.01 316.005 207.666 316.562C206.968 317.69 211.752 326.421 215.604 331.05C218.753 334.833 218.843 333.473 216.18 322.363C214.101 313.691 213.483 300.094 215.122 299.081C215.645 298.758 216.343 300.194 216.675 302.272C218.707 314.998 223.379 326.022 230.354 334.55C236.242 341.749 237.173 343.636 237.173 348.374C237.173 356.918 240.297 369.033 245.113 379.164C248.881 387.092 251.447 390.886 256.987 396.717C262.045 402.042 264.649 405.747 266.146 409.749C270.142 420.427 278.971 431.678 285.796 434.788C287.103 435.384 288.173 436.211 288.173 436.627C288.173 439.126 279.933 437.71 273.038 434.026C264.224 429.318 264.488 431.513 274.205 443.744C277.762 448.222 282.698 454.44 285.173 457.561C289.966 463.605 295.895 469.007 303.567 474.32L308.29 477.591L307.981 512.867C307.709 543.999 307.474 548.446 305.979 550.725C305.048 552.145 299.873 556.281 294.479 559.915C285.632 565.877 283.96 566.622 277.378 567.539C268.923 568.717 268.171 569.071 241.673 584.362C230.673 590.71 205.023 604.298 184.673 614.557C164.323 624.817 146.773 633.722 145.673 634.345C144.573 634.969 133.548 640.722 121.173 647.13C95.26 660.549 79.44 669.089 63.176 678.44C44.955 688.915 33.752 701.314 22.799 723.125C16.541 735.588 10.627 754.026 8.71 767.05C7.82 773.1 6.915 779.062 6.699 780.299C6.483 781.535 5.802 787.835 5.186 794.299C4.571 800.762 3.88699 806.725 3.66599 807.55C3.44599 808.375 2.993 813.55 2.659 819.05C2.326 824.55 1.881 829.725 1.672 830.55C1.463 831.375 1.001 847.238 0.645996 865.8L0 899.55H4.464H8.92899L9.604 877.8C10.715 841.979 12.143 817.968 14.167 801.05C16.289 783.319 20.824 751.73 21.57 749.488C26.981 733.22 30.918 724.945 39.8 711.171C47.74 698.857 53.311 694.666 83.173 678.544C96.648 671.269 110.598 663.641 114.173 661.594C123.358 656.334 146.776 644.221 190.173 622.286C210.798 611.861 230.979 601.324 235.02 598.871C239.061 596.418 242.494 594.555 242.648 594.731C242.803 594.906 243.403 599.129 243.981 604.114C245.965 621.207 259.152 654.716 272.077 675.511C284.405 695.344 300.417 712.738 320.673 728.302C335.145 739.422 343.609 744.714 356.107 750.458C375.574 759.405 386.798 762.574 407.899 765.08C424.419 767.042 433.254 766.797 449.704 763.92C471.613 760.089 489.236 752.896 508.931 739.749C526.283 728.166 549.223 706.393 558.134 693.05C559.97 690.3 562.26 687.15 563.223 686.05C564.185 684.95 568.287 678.2 572.339 671.05C584.558 649.487 589.532 637.101 595.093 614.391C597.337 605.229 599.173 596.792 599.173 595.641C599.173 594.491 599.285 593.552 599.423 593.554C599.561 593.556 610.698 599.202 624.173 606.102C637.648 613.001 655.868 622.111 664.661 626.348C695.618 641.261 743.818 665.471 756.673 672.563C763.823 676.508 773.048 681.57 777.173 683.812C802.795 697.739 815.876 713.039 827.272 742.414C836.487 766.164 840.097 798.135 841.827 871.3L842.495 899.55H847.988H853.481L852.845 864.3C852.052 820.362 851.115 806.641 846.58 772.55C843.979 752.996 833.604 725.658 822.299 708.57C813.228 694.858 800.362 684.613 775.173 671.044C735.967 649.923 687.041 624.998 665.173 615.006C651.279 608.657 596.078 580.189 589.484 575.972C581.22 570.686 576.201 568.357 568.101 566.05C560.07 563.762 551.832 558.909 546.341 553.231C541.84 548.577 541.247 543.29 541.206 507.474C541.169 474.989 540.413 477.882 550.428 472.171C553.043 470.68 557.22 466.893 559.71 463.755C562.2 460.617 566.253 455.575 568.716 452.55C574.495 445.455 583.336 432.379 582.751 431.794C582.502 431.545 579.761 432.583 576.661 434.1C567.493 438.585 555.432 438.57 564.107 434.084C565.72 433.25 569.733 430.074 573.024 427.028C577.816 422.591 580.001 419.454 584.002 411.269C587.442 404.23 590.448 399.649 593.663 396.55C603.019 387.528 609.966 372.217 612.717 354.55C614.833 340.962 614.74 341.221 619.57 335.562C621.991 332.726 625.332 327.851 626.996 324.728C630.862 317.473 635.169 304.669 635.188 300.374C635.217 294.207 636.803 294.082 638.022 300.152C639.505 307.535 639.431 313.52 637.762 321.3C637.024 324.738 636.731 327.55 637.11 327.55C638.426 327.55 642.964 322.027 644.915 318.05C648.422 310.903 649.23 304.963 649.248 286.219L649.265 268.002L653.606 265.256C659.56 261.489 668.515 252.72 670.696 248.521C672.871 244.332 679.173 220.478 679.173 216.433C679.173 211.628 675.702 212.661 672.083 218.542C668.076 225.055 659.208 232.901 651.629 236.64C644.59 240.113 629.292 243.518 620.647 243.537C604.243 243.573 585.263 238.839 570.4 231.006C553.057 221.865 534.029 204.813 519.323 185.231C511.9 175.347 506.061 165.949 507.785 166.663C508.3 166.876 515.528 174.255 523.846 183.062C546.222 206.751 558.719 216.956 575.71 225.416C591.058 233.058 611.843 237.509 625.173 236.01C633.393 235.086 644.987 231.776 650.482 228.785C663.509 221.695 680.173 195.696 680.173 182.461C680.173 178.804 677.592 174.55 675.373 174.55C674.933 174.55 674.03 177.137 673.367 180.3C670.436 194.269 660.795 206.451 648.713 211.452C636.842 216.366 616.683 217.898 602.381 214.974C585.68 211.56 573.741 206.365 557.173 195.303C543.71 186.314 533.227 177.513 515.102 159.987C488.674 134.43 471.313 125.114 450.173 125.144C439.158 125.16 436.659 125.867 426.839 131.745C423.072 133.999 422.979 134.005 421.591 132.107C419.633 129.429 421.397 126.936 428.15 122.843C442.532 114.125 466.968 116.477 487.259 128.532C494.563 132.871 509.846 145.48 523.173 158.16C552.245 185.823 574.472 199.81 600.335 206.717C611.473 209.692 629.418 209.896 639.91 207.168C643.891 206.133 647.671 204.655 648.311 203.884C649.899 201.97 648.017 198.571 644.136 196.344C642.507 195.408 641.173 194.204 641.173 193.667C641.173 193.131 643.747 190.735 646.893 188.344C656.358 181.15 661.173 172.065 661.173 161.404C661.173 157.563 660.758 156.398 659.066 155.493C656.392 154.061 656.035 154.541 653.353 163.173C650.763 171.506 646.839 177.33 640.919 181.622L636.673 184.7L634.489 179.956L632.304 175.212L631.989 179.631C631.704 183.616 631.403 184.081 628.923 184.366C627.349 184.548 626.173 185.296 626.173 186.116C626.173 187.082 625.055 187.55 622.744 187.55C620.859 187.55 618.641 188.225 617.816 189.05C613.297 193.569 587.935 188.067 568.673 178.389C556.981 172.515 548.616 166.747 539.926 158.568C536.487 155.331 530.523 150.091 526.673 146.924C522.823 143.757 519.448 140.889 519.173 140.549C518.749 140.025 502.794 126.882 498.16 123.239C485.302 113.131 464.633 105.302 444.673 102.978C438.84 102.299 434.555 100.501 435.801 99.256C436.139 98.918 435.039 96.203 433.357 93.222L430.299 87.803L433.486 86.696L436.673 85.588L433.673 86.194C432.023 86.527 429.181 86.982 427.356 87.206C419.541 88.163 410.844 92.749 404.07 99.484C396.176 107.335 393.359 112.472 392.513 120.569C392.166 123.893 391.544 126.821 391.131 127.076C390.719 127.331 389.357 126.71 388.106 125.696C385.895 123.906 385.864 123.645 387.032 116.576C389.289 102.909 395.921 93.31 407.998 86.232C418.461 80.1 425.672 78.35 442.751 77.801C459.123 77.274 466.865 78.512 481.388 83.979C492.693 88.234 514.562 101.66 536.972 118.104C548.794 126.778 552.203 128.726 561.828 132.303C567.964 134.583 578.764 137.881 585.828 139.632C597.503 142.525 599.63 142.763 609.173 142.243C614.948 141.928 621.138 141.148 622.929 140.51C628.455 138.541 628.557 131.489 623.071 130.709C620.58 130.354 617.173 127.864 617.173 126.397C617.173 124.734 606.955 107.195 602.362 100.975C599.69 97.356 597.113 94.819 596.371 95.076C595.655 95.324 595.356 95.063 595.707 94.495C596.058 93.927 595.801 92.807 595.137 92.006C594.472 91.205 594.311 90.55 594.778 90.55C595.246 90.55 599.159 94.038 603.474 98.3C611.018 105.753 611.251 105.897 609.542 102.05C605.397 92.719 588.722 73.809 580.316 68.907C574.161 65.318 556.994 52.944 546.606 44.609C524.069 26.527 495.1 12.394 465.673 5.12398C447.177 0.554985 421.832 -1.11302 399.173 0.747978ZM456.173 12.092C476.469 15.539 503.987 26.589 522 38.527C526.77 41.688 534.498 46.788 539.173 49.859C543.848 52.931 550.148 57.887 553.173 60.874C557.832 65.474 573.962 78.799 576.022 79.75C577.414 80.392 591.221 96.863 594.786 102.135C598.259 107.27 601.817 111.746 606.423 116.774C608.486 119.026 610.173 121.864 610.173 123.081C610.173 124.867 609.449 125.408 606.423 125.884C604.361 126.208 600.873 126.003 598.673 125.429C596.473 124.855 593.436 124.146 591.923 123.854C590.41 123.562 589.173 122.679 589.173 121.891C589.173 121.103 588.013 119.299 586.595 117.882C584.714 116 584.179 114.662 584.615 112.927C585.172 110.706 584.934 110.55 581.001 110.55C577.133 110.55 576.948 110.665 578.719 111.96C580.62 113.35 580.619 113.4 578.665 115.559C577.11 117.277 575.906 117.643 573.069 117.263C567.757 116.55 554.555 109.987 538.673 100.163C521.534 89.562 495.788 76.719 483.642 72.713C441.634 58.858 397.492 66.517 382.369 90.284C378.125 96.955 376.236 103.528 375.397 114.55C374.999 119.775 374.229 124.05 373.686 124.05C369.573 124.05 368.585 106.622 372.07 95.516C374.323 88.336 380.687 78.561 386.239 73.753C396.563 64.814 416.142 58.013 435.673 56.58C441.173 56.177 443.76 55.78 441.423 55.698C437.889 55.575 437.173 55.213 437.173 53.55C437.173 52.45 436.671 51.55 436.056 51.55C435.409 51.55 435.138 50.514 435.411 49.084L435.883 46.617L428.778 47.074C409.801 48.293 388.502 55.861 378.454 64.955C363.608 78.393 356.41 95.215 358.302 112.05C358.673 115.35 358.783 118.25 358.547 118.494C358.311 118.739 357.225 118.046 356.134 116.955C354.487 115.309 354.041 113.07 353.51 103.774C352.425 84.825 356.273 75.656 371.941 59.843C380.513 51.192 386.031 47.93 399.173 43.745C416.066 38.366 417.112 38.23 436.456 38.893C446.475 39.236 456.473 39.771 458.673 40.081C467.104 41.268 479.027 44.889 492.095 50.231C510.146 57.61 517.982 60.55 519.602 60.55C521.351 60.55 522.212 55.935 520.784 54.213C515.679 48.059 480.18 34.854 459.802 31.529C436.421 27.715 423.752 28.984 393.308 38.19C379.8 42.275 374.885 44.6 370.127 49.16C366.837 52.312 359.837 56.55 357.921 56.55C356.031 56.55 350.919 61.274 348.223 65.511C344.991 70.592 342.759 77.685 341.158 87.972C339.616 97.874 338.801 98.766 336.823 92.719C334.656 86.094 334.749 79.875 337.166 69.794C340.157 57.319 344.352 49.902 353.862 40.275C360.578 33.476 367.211 28.865 379.673 22.332C384.623 19.736 388.125 17.599 387.454 17.582C386.784 17.564 386.467 16.949 386.749 16.214C387.116 15.256 386.187 14.839 383.467 14.741C380.683 14.641 380.072 14.863 381.173 15.576C382.249 16.273 381.826 16.386 379.673 15.977C373.232 14.753 351.787 28.501 341.97 40.148C339.607 42.951 335.76 47.624 333.423 50.532L329.173 55.819V52.145C329.173 44.456 337.886 32.751 349.629 24.665C363.428 15.162 370.649 12.747 387.673 11.938C393.723 11.651 402.498 11.032 407.173 10.562C419.069 9.36597 444.863 10.172 456.173 12.092ZM317.736 57.175L328.173 58.801L328.158 61.925C328.145 64.807 326.553 72.596 324.097 81.8L323.096 85.55L311.384 85.556C304.943 85.559 297.873 86.048 295.673 86.644C280.747 90.684 257.357 114.598 248.034 135.35C246.379 139.035 242.772 148.929 240.02 157.336C237.267 165.743 233.701 175.521 232.094 179.064C228.866 186.184 228.385 190.31 230.681 191.191C235.122 192.896 241.814 181.975 250.723 158.486C262.707 126.887 277.253 106.083 292.682 98.476C299.352 95.187 307.872 93.721 310.791 95.359C312.425 96.276 311.751 96.843 305.673 99.658C296.709 103.811 288.379 109.412 284.359 113.991C274.962 124.694 266.021 140.572 258.503 159.911C254.644 169.837 247.384 184.496 242.586 192.05C236.28 201.978 222.186 213.142 216.947 212.359C215.806 212.189 213.929 210.779 212.773 209.226C210.882 206.684 210.684 205.138 210.781 193.726C210.929 176.265 212.689 163.291 215.823 156.55C217.229 153.525 219.856 146.775 221.661 141.55C227.695 124.081 228.523 122.081 232.267 115.93C244.136 96.432 256.996 84.581 274.992 76.559C286.958 71.225 292.979 69.577 300.558 69.562C305.543 69.552 306.798 69.167 308.761 67.05C310.395 65.286 312.196 64.52 314.875 64.448L318.673 64.345L315.173 63.394C308.467 61.572 291.247 62.086 284.673 64.304C265.974 70.615 251.587 78.871 243.053 88.189C231.446 100.862 217.54 126.193 212.66 143.55C211.964 146.025 210.204 150.599 208.749 153.715C205.054 161.629 203.297 170.859 202.518 186.458C201.866 199.496 201.799 199.806 200.075 197.678C199.1 196.474 197.317 191.223 196.112 186.009C194.219 177.816 193.992 174.596 194.438 162.29C195.281 139.053 200.427 126.149 218.041 103.107C233.769 82.531 249.865 69.032 266.573 62.405C283.417 55.723 298.509 54.181 317.736 57.175ZM384.916 141.996C397.153 144.57 417.006 144.755 430.673 142.423C448.132 139.443 458.461 140.055 467.546 144.607C476.35 149.017 484.53 156.837 487.564 163.742C488.847 166.661 492.247 175.8 495.119 184.05C503.873 209.192 518.463 233.173 533.648 247.377C537.268 250.764 544.38 256.648 549.451 260.453C554.523 264.258 559.871 268.649 561.335 270.211C563.76 272.798 570.173 284.277 570.173 286.032C570.173 288.109 564.099 284.743 558.367 279.49C554.801 276.223 551.499 273.55 551.028 273.55C549.112 273.55 550.344 271.545 552.609 270.977C554.749 270.44 554.917 270.081 553.986 268.038C552.611 265.022 545.993 260.306 537.461 256.265L530.673 253.05L513.173 253.167C495.196 253.287 476.789 255.632 465.832 259.196C460.438 260.951 454.822 265.395 452.622 269.649C450.56 273.636 450.81 275.033 453.778 276.107L456.384 277.05L452.309 281.19C448.925 284.629 448.037 285.091 447.066 283.921C443.686 279.849 429.851 276.107 421.16 276.915C412.652 277.705 408.592 279.08 403.857 282.774C401.758 284.411 399.953 285.593 399.846 285.4C399.74 285.208 398.194 283.164 396.413 280.859C394.631 278.553 393.173 276.416 393.173 276.109C393.173 275.801 394.523 275.55 396.173 275.55C399.62 275.55 399.62 275.552 397.826 271.268C395.629 266.021 389.093 260.915 381.619 258.606C369.273 254.793 334.989 251.849 322.899 253.565C315.049 254.679 305.262 259.451 299.2 265.122C294.316 269.69 292.888 272.955 295.407 273.795C296.221 274.066 295.683 275.344 293.824 277.553C289.704 282.45 284.014 286.703 282.408 286.087C281.639 285.791 279.981 285.55 278.723 285.55H276.437L279.704 275.599C281.501 270.126 285.257 260.729 288.051 254.716C295.697 238.263 297.795 231.651 302.229 210.02C308.316 180.333 312.049 171.058 322.121 160.603C332.687 149.637 344.027 144.657 363.252 142.541C368.977 141.911 373.851 141.206 374.083 140.973C374.829 140.227 377.874 140.515 384.916 141.996ZM522.43 212.05C537.804 234.934 548.003 245.024 565.687 254.843C583.119 264.523 602.022 268.55 620.414 266.505C637.053 264.654 649.116 259.071 661.493 247.491C666.31 242.984 670.514 239.558 670.834 239.878C672.032 241.076 660.181 257.162 655.236 261.05C643.541 270.246 624.887 275.245 606.173 274.198C573.118 272.35 549.633 257.12 524.22 221.054C515.348 208.462 513.748 205.537 508.775 192.812C503.625 179.631 504.363 179.354 510.803 192.05C513.873 198.1 519.105 207.1 522.43 212.05ZM366.259 277.43C377.921 279.533 384.057 282.035 389.057 286.727C398.902 295.964 399.377 314.566 390.24 333.104C385.396 342.932 380.073 349.144 371.885 354.525C362.206 360.887 354.199 362.921 341.314 362.292C329.534 361.716 322.756 359.696 314.698 354.359C308.916 350.529 299.039 338.892 295.739 332.021C290.401 320.907 288.8 302.271 292.309 292.095C294.311 286.291 302.942 280.043 312.373 277.573C322.759 274.852 351.539 274.775 366.259 277.43ZM531.872 276.571C543.957 278.533 552.199 283.82 556.097 292.111C559.24 298.798 559.286 314.411 556.191 324.05C549.808 343.93 540.261 354.513 523.697 360.074C510.979 364.343 495.172 363.123 482.914 356.924C475.874 353.365 463.456 340.672 459.355 332.845C455.07 324.667 451.86 310.044 452.719 302.615C454.448 287.664 462.63 280.638 482.515 277.029C491.154 275.462 523.203 275.164 531.872 276.571ZM338.173 287.432C335.148 288.409 331.23 289.961 329.466 290.882C323.466 294.016 313.155 301.712 313.724 302.633C314.927 304.579 321.019 303.367 329.173 299.56L337.673 295.592L338.743 300.821C339.331 303.697 340.357 307.058 341.022 308.29C344.807 315.295 359.928 315.151 364.571 308.065C365.404 306.793 366.668 303.515 367.38 300.78L368.673 295.806L377.117 301.178C389.667 309.163 391.599 308.364 382.778 298.837C379.811 295.632 375.419 292.028 373.018 290.83C362.414 285.533 348.317 284.159 338.173 287.432ZM436.015 288.479C438.027 289.511 440.717 291.475 441.994 292.843C444.147 295.15 444.242 295.727 443.301 300.813C441.726 309.338 444.465 324.244 449.411 334.05C461.312 357.649 481.191 371.071 505.173 371.701C515.071 371.96 520.715 371.082 528.876 368.01C538.173 364.51 543.97 360.568 551.398 352.694C561.965 341.493 567.139 327.923 567.922 309.361C568.315 300.042 568.729 297.55 569.964 297.077C572.213 296.214 572.826 297.818 573.523 306.388C574.859 322.84 572.657 338.423 562.69 383.05C560.725 391.85 558.173 403.317 557.019 408.532C554.452 420.139 549.103 439.025 546.165 446.856C539.559 464.467 507.958 503.075 483.314 523.646C472.708 532.498 457.29 540.749 448.173 542.45C432.384 545.397 409.779 544.464 397.815 540.372C390.673 537.929 382.435 533.853 376.472 529.813C363.823 521.242 333.535 490.837 321.92 475.05C313.29 463.321 306.436 451.59 302.482 441.785C300.563 437.025 296.32 421.863 293.054 408.09C289.788 394.318 285.798 377.65 284.189 371.05C277.471 343.507 275.017 324.062 275.949 305.747C276.397 296.955 276.54 296.46 278.548 296.747C280.491 297.024 280.739 297.904 281.446 307.05C283.05 327.793 289.733 343.334 302.342 355.647C309.589 362.724 319.487 368.323 328.576 370.488C334.906 371.996 352.987 371.681 359.561 369.949C369.592 367.307 379.239 361.684 386.673 354.147C392.661 348.076 394.373 345.483 398.51 336.214C403.863 324.221 406.417 311.696 405.938 299.779L405.673 293.191L410.541 290.153C418.296 285.315 428.533 284.642 436.015 288.479ZM484.955 286.955C479.253 288.489 471.414 293.618 464.726 300.189C460.158 304.678 459.954 305.075 462.068 305.382C463.44 305.58 467.516 303.878 472.242 301.132C476.579 298.612 480.56 296.55 481.089 296.55C481.618 296.55 482.368 298.687 482.756 301.3C483.294 304.92 484.352 306.942 487.2 309.8C490.594 313.205 491.432 313.55 496.305 313.546C505.582 313.54 511.379 307.981 511.581 298.899C511.686 294.173 511.246 294.114 521.209 300.193C526.134 303.197 527.266 303.499 531.459 302.924C534.052 302.569 536.16 302.002 536.144 301.664C536.111 300.966 526.472 293.972 521.105 290.752C513.258 286.045 495.333 284.162 484.955 286.955ZM266.45 332.05C266.924 345.537 267.124 346.599 271.904 361.05C276.157 373.907 278.761 384.247 280.944 396.942C281.418 399.694 281.302 399.8 278.557 399.133C268.662 396.729 259.154 388.588 253.864 377.99C249.14 368.527 247.319 361.859 245.784 348.399L244.497 337.107L250.051 332.078C257.427 325.4 264.135 318.277 264.156 317.1C264.167 316.5 264.502 316.5 265.066 317.1C265.556 317.622 266.18 324.35 266.45 332.05ZM600.16 333.569L605.364 337.05L604.76 345.05C603.899 356.466 601.721 364.661 596.77 375.113C590.204 388.975 582.506 396.084 571.908 398.072L568.253 398.758L569.24 395.404C569.782 393.559 571.157 387.801 572.296 382.607C573.434 377.414 575.667 369.636 577.257 365.323C581.337 354.257 583.916 343.357 584.656 334.05C585.006 329.65 585.545 324.728 585.853 323.112L586.414 320.175L590.685 325.132C593.034 327.858 597.297 331.655 600.16 333.569ZM400.423 392.164C394.699 396.311 400.408 399.971 411.663 399.37C418.865 398.985 420.024 397.004 415.098 393.497C411.008 390.584 403.54 389.906 400.423 392.164ZM439.173 392.751C434.014 395.387 432.948 398.806 437.101 399.393C441.482 400.011 450.076 398.449 452.33 396.624L454.539 394.836L452.053 393.207C447.735 390.378 444.071 390.248 439.173 392.751ZM398.997 444.027C398.625 444.416 391.425 445.031 382.997 445.393L367.673 446.05L367.363 448.733C367.156 450.528 367.652 451.729 368.863 452.363C369.948 452.93 392.986 453.258 426.387 453.18C477.482 453.061 482.243 452.908 483.809 451.343C485.096 450.055 485.281 449.107 484.56 447.491C483.66 445.475 482.707 445.314 468.638 444.796C460.407 444.493 449.173 444.368 443.673 444.516C426.207 444.989 418.921 444.901 409.173 444.099C403.948 443.67 399.369 443.637 398.997 444.027ZM426.694 473.517L407.715 474.05L410.507 476.243C414.995 479.77 419.768 480.864 428.16 480.288C435.311 479.798 441.074 477.773 447.173 473.605C448.506 472.694 448.506 472.603 447.173 472.782C446.348 472.893 437.132 473.223 426.694 473.517ZM323.875 492.468C329.551 501.091 353.183 524.023 366.673 533.996C373.273 538.876 382.057 546.077 386.193 550C411.236 573.75 431.56 583.965 453.673 583.919C466.345 583.892 472.561 582.082 482.769 575.444C498.964 564.912 514.675 545.545 526.488 521.55L531.658 511.05L532.277 536.05C532.618 549.8 533.229 563.876 533.636 567.33C534.32 573.13 536.016 576.55 538.209 576.55C539.836 576.55 541.173 572.746 541.173 568.116C541.173 565.605 541.555 563.55 542.023 563.55C543.183 563.55 550.336 568.808 552.115 570.968C552.909 571.931 555.454 574.024 557.772 575.618L561.986 578.518L561.501 584.784C557.844 631.979 531.695 677.648 493.673 703.244C479.351 712.885 459.565 721.045 444.673 723.452C424.419 726.726 397.378 724.183 380.173 717.387C349.347 705.209 322.779 682.698 304.592 653.348C292.929 634.525 284.429 611.758 281.263 590.858C279.607 579.934 279.761 578.684 282.923 577.33C287.194 575.501 304.03 565.591 304.696 564.513C305.023 563.983 306.142 563.55 307.182 563.55C308.783 563.55 309.119 564.433 309.373 569.3C309.628 574.196 309.958 575.05 311.59 575.05C312.77 575.05 313.79 574.09 314.246 572.55C315.67 567.735 317.454 522.865 316.998 503.31C316.477 480.923 316.379 481.078 323.875 492.468ZM272.103 588.597C272.26 603.273 278.029 622.551 288.697 644.05C305.77 678.456 329.879 703.351 361.233 718.95C377.434 727.01 387.593 730.542 403.173 733.53C454.488 743.372 509.822 716.436 544.875 664.55C549.606 657.546 559.46 637.856 562.436 629.459C568.109 613.449 571.408 598.576 571.539 588.418C571.679 577.515 571.044 577.93 580.389 582.629C588.019 586.465 588.34 587.016 587.612 594.993C585.916 613.579 576.413 641.407 564.182 663.603C554.961 680.336 544.602 694.151 531.192 707.598C508.041 730.811 488.658 742.549 460.327 750.51C446.1 754.507 438.882 755.537 425.173 755.524C387.429 755.489 358.787 744.5 324.069 716.734C307.933 703.829 287.48 680.627 278.303 664.817C270.169 650.803 261.196 629.249 257.622 615.141C256.217 609.591 254.641 604.269 254.12 603.314C252.709 600.727 252.938 588.988 254.423 587.767C255.111 587.202 259.047 584.911 263.172 582.678C271.897 577.952 271.989 578.013 272.103 588.597ZM616.323 642.3C615.817 643.262 615.052 646.525 614.622 649.55C614.192 652.575 613.732 655.725 613.6 656.55C613.468 657.375 612.178 665.7 610.734 675.05C608.581 688.987 594.983 758.482 589.797 782.05C587.517 792.41 586.983 799.921 588.399 801.725C590.036 803.81 593.287 804.747 595.05 803.64C597.351 802.195 608.783 749.755 616.217 706.55C617.873 696.925 620.09 684.55 621.144 679.05C624.574 661.15 626.383 644.811 625.184 642.57C623.771 639.931 617.667 639.745 616.323 642.3ZM231.923 701.63C229.251 703.186 229.734 706.644 235.201 725.087C239.516 739.645 243.702 754.552 252.18 785.55C253.157 789.125 257.833 805.775 262.569 822.55C267.305 839.325 272.338 858.205 273.752 864.507C276.816 878.156 277.467 879.55 280.774 879.55C285.494 879.55 287.173 877.873 287.173 873.159C287.173 867.008 276.742 827.827 260.254 772.05C258.14 764.9 252.935 747.278 248.686 732.89C244.437 718.501 240.115 705.339 239.081 703.64C237.147 700.459 234.978 699.851 231.923 701.63ZM770.434 733.716C761.034 742.145 740.564 764.311 732.262 775.05C712.952 800.028 700.898 820.824 691.205 845.885C687.887 854.463 685.173 861.919 685.173 862.455C685.173 862.991 682.473 871.433 679.173 881.215C675.873 890.997 673.173 899.125 673.173 899.276C673.173 899.426 680.579 899.55 689.63 899.55H706.087L716.268 891.8C736.6 876.322 747.81 868.279 754.52 864.354C764.246 858.664 767.601 855.475 766.734 852.743C765.777 849.727 762.079 849.033 758.031 851.111C748.691 855.904 724.811 871.957 708.173 884.627C706.798 885.674 703.648 887.733 701.173 889.204C698.698 890.674 695.433 893.016 693.916 894.407C691.795 896.354 690.887 896.664 689.978 895.755C688.514 894.291 692.087 883.144 695.967 877.066C699.294 871.856 714.902 852.233 726.046 839.252C740.16 822.811 763.391 802.515 776.465 795.204C784.014 790.982 786.442 788.481 786.003 785.382C785.728 783.438 785.007 783.006 781.673 782.784C776.521 782.44 771.428 785.365 753.416 799.008C734.958 812.989 717.214 830.543 708.763 843.18C701.908 853.431 701.094 853.864 703.765 845.835C710.544 825.459 729.216 794.295 748.572 771.05C751.32 767.75 760.23 758.241 768.371 749.919C782.786 735.184 784.647 732.424 781.973 729.75C779.6 727.377 776.199 728.545 770.434 733.716ZM69.173 731.55C68.073 732.65 67.179 734.113 67.186 734.8C67.194 735.488 71.462 740.456 76.672 745.841C87.851 757.395 105.935 778.978 113.297 789.552C116.168 793.676 120.86 800.425 123.724 804.55C128.744 811.781 140.173 833.364 140.173 835.613C140.173 836.216 141.341 839.63 142.77 843.199C144.198 846.769 145.173 849.884 144.936 850.12C144.699 850.357 142.795 848.066 140.703 845.03C134.991 836.736 100.907 802.668 90.898 795.248C86.072 791.67 79.221 787.238 75.674 785.399C69.398 782.145 69.151 782.1 66.449 783.74C61.765 786.582 62.897 788.49 73.566 795.724C92.843 808.796 103.487 818.662 128.4 846.55C149.157 869.785 164.274 894.55 157.701 894.55C156.379 894.55 152.862 892.229 131.673 877.375C128.373 875.062 123.063 871.005 119.873 868.361C112.132 861.944 98.58 853.135 93.879 851.465C89.342 849.852 86.673 851.03 86.673 854.645C86.673 856.507 88.452 858.215 94.89 862.536C99.409 865.569 106.384 870.79 110.39 874.139C114.396 877.487 121.723 883.29 126.673 887.033C131.623 890.776 137.151 895.123 138.958 896.694L142.243 899.55H157.708C166.832 899.55 173.173 899.16 173.173 898.598C173.173 897.758 170.203 888.849 163.322 869.05C162.176 865.75 159.845 858.122 158.143 852.098C154.423 838.927 144.613 817.387 136.191 803.897C129.109 792.552 115.169 773.623 107.173 764.495C84.196 738.264 75.356 729.55 71.723 729.55C71.42 729.55 70.273 730.45 69.173 731.55ZM142.613 761.778C137.449 764.495 136.964 768.104 141.127 772.845C152.292 785.561 173.557 841.045 182.311 880.3L186.604 899.55H192.014C197.389 899.55 197.419 899.533 196.843 896.8C188.389 856.707 175.262 815.146 162.18 787.05C157.652 777.327 148.014 762.087 145.873 761.265C145.147 760.986 143.679 761.217 142.613 761.778ZM679.825 765.744C678.97 768.112 676.423 776.8 674.166 785.05C671.908 793.3 669.217 802.975 668.184 806.55C666.06 813.902 657.903 846.448 656.28 854.05C654.656 861.658 649.173 895.177 649.173 897.502C649.173 899.308 649.799 899.55 654.471 899.55H659.77L662.073 884.3C665.642 860.673 668.847 846.904 685.794 782.415C690.239 765.499 690.039 762.285 684.509 761.744C681.637 761.464 681.254 761.791 679.825 765.744ZM509.965 794.032C509.026 795.287 504.234 806.605 499.317 819.182C489.964 843.107 474.613 880.243 469.288 891.825C467.575 895.551 466.173 898.814 466.173 899.075C466.173 899.336 469.542 899.55 473.66 899.55H481.146L482.75 895.8C495.378 866.264 515.666 810.276 517.682 799.397C518.351 795.789 517.201 794.411 513.712 794.636C513.184 794.67 512.509 794.034 512.212 793.223C511.786 792.058 511.314 792.228 509.965 794.032Z" fill="currentColor" stroke="currentColor" stroke-width="6" mask="url(#path-3-inside-1_6_23)"/>
</g>
<rect x="0.5" y="0.5" width="852.481" height="898.55" stroke="currentColor"/>
<defs>
<clipPath id="clip0_6_23">
<rect width="853.481" height="899.55" fill="white"/>
</clipPath>
</defs>
</svg>
